<svg xmlns="http://www.w3.org/2000/svg" viewBox="0 0 512 512"><path d="M437 75C388.7 26.6 324.4 0 256 0 187.6 0 123.3 26.6 75 75S0 187.6 0 256c0 68.4 26.6 132.7 75 181 48.4 48.3 112.6 75 181 75 68.4 0 132.7-26.6 181-75 48.4-48.3 75-112.6 75-181C512 187.6 485.4 123.3 437 75zM425.7 425.7C380.4 471 320.1 496 256 496c-64.1 0-124.4-25-169.7-70.3C41 380.4 16 320.1 16 256c0-64.1 25-124.4 70.3-169.7C131.6 41 191.9 16 256 16c64.1 0 124.4 25 169.7 70.3C471 131.6 496 191.9 496 256 496 320.1 471 380.4 425.7 425.7z"/><path d="M165.5 246.8h34.4c8.5 0 15.7-1.8 21.3-5.2 4.8-2.9 10.4-8.9 10.4-21.1 0-14.6-8.6-20.3-13.7-22.4 -0.2-0.1-0.4-0.1-0.5-0.2 -5.9-2-13.2-3-21.7-3h-30.3c-4.4 0-8 3.6-8 8v35.9C157.5 243.2 161.1 246.8 165.5 246.8zM173.5 210.9h22.3c6.6 0 12.2 0.7 16.4 2.1 1.4 0.6 3.5 1.8 3.5 7.5 0 5.8-2 7-2.8 7.5 -3.1 1.9-7.5 2.9-13 2.9h-26.4L173.5 210.9 173.5 210.9z"/><path d="M220 261.2c-4.9-2.3-11.3-3.4-19.6-3.5h-34.9c-4.4 0-8 3.6-8 8v43.3c0 4.4 3.6 8 8 8h34.4c8.4 0 14.9-1.2 20-3.7 6.9-3.4 15.1-11 15.1-27.5C235 274.4 229.7 265.6 220 261.2zM212.8 299c-1.9 0.9-5.7 2-12.9 2h-26.4v-27.3h26.8c7.3 0.1 11.1 1.1 13 2 2.8 1.3 5.6 3.5 5.6 10.1C219 294.8 215.7 297.6 212.8 299z"/><path d="M354.3 236.6c-6.2-4.6-13.9-6.9-22.8-6.9 -9.7 0-17.6 2.6-23.4 7.6 -5.7 4.9-9.4 11.7-10.8 20 -0.4 2.3 0.2 4.7 1.8 6.5s3.8 2.8 6.1 2.8h52.5c2.2 0 4.4-0.9 5.9-2.6 1.5-1.6 2.3-3.8 2.1-6.1C364.9 248.8 361.1 241.6 354.3 236.6zM317.4 250.7c0.4-0.4 0.8-0.8 1.3-1.2 2.8-2.4 7.1-3.7 12.9-3.7 5.5 0 9.9 1.2 13.3 3.8 0.4 0.3 0.9 0.7 1.3 1.1L317.4 250.7 317.4 250.7z"/><path d="M364 197.6c4.4 0 8-3.6 8-8s-3.6-8-8-8h-65.5c-4.4 0-8 3.6-8 8s3.6 8 8 8H364z"/><path d="M397.3 282.7c0.1-10.4-0.2-18.6-1.1-24.5 -1.6-10.3-5.2-19.5-10.6-27.3 -6.1-9.1-14-15.8-23.5-20.1 -9.1-4.1-19.4-6.1-30.7-6.1 -19.2 0-35.1 6.2-47.3 18.5 -11 11.1-17.1 26.4-18.1 45.7 -1.1-3.1-2.6-6-4.3-8.7 -2.7-4.2-6.1-7.8-10.1-10.8 1.2-1.1 2.2-2.2 3.2-3.3 6.2-7.5 9.4-17.2 9.4-29 0-11.3-3-21.3-9-29.6 -9.8-13.3-26.1-20.2-48.4-20.6 0 0-0.1 0-0.1 0H128c-4.4 0-8 3.6-8 8v162.6c0 4.4 3.6 8 8 8h73.2c8.7 0 17-0.8 24.6-2.4 8.2-1.7 15.5-4.9 21.6-9.6 5.3-4 9.9-9 13.5-14.9 3.9-6.1 6.4-12.8 7.6-20.1 3.2 12.6 9.2 22.6 18.1 29.8 13.3 10.7 28.8 16.1 46 16.1 21 0 37.7-6.6 49.6-19.5 5.5-5.9 9.4-11.9 11.6-18.1 0.9-2.4 0.5-5.2-1-7.3 -1.5-2.1-3.9-3.4-6.5-3.4h-33.8c-2.3 0-4.4 0.9-5.9 2.6l-0.5 0.5c-0.3 0.3-0.6 0.7-0.8 0.9 -2.9 2.4-6.7 3.5-11.8 3.5 -5.1 0-9.2-1-12.5-3.1 0 0-0.1 0-0.1-0.1 -3.4-2.1-5.8-5.3-7.1-9.7h75.5C393.7 290.6 397.2 287.1 397.3 282.7zM247.3 309.9c0 0-0.1 0.1-0.1 0.1 -2.5 4.2-5.7 7.7-9.5 10.5 0 0-0.1 0-0.1 0.1 -4.2 3.2-9.3 5.5-15.1 6.7 -6.5 1.3-13.7 2-21.3 2H136V182.7h70.5c17.3 0.3 29 4.9 35.7 14 4 5.5 5.9 12.1 5.9 20.1 0 8.1-1.9 14.2-5.7 18.8 -2.1 2.5-5.4 5-9.8 7.2 -2.8 1.4-4.6 4.4-4.4 7.6 0.2 3.2 2.2 5.9 5.2 7 6.7 2.5 11.5 6.1 14.8 11.2 0 0 0 0 0 0 3.4 5.3 5.1 11.7 5.1 19.5C253.3 296.4 251.3 303.5 247.3 309.9zM304.5 274.6c-2.2 0-4.3 0.9-5.8 2.5 -1.5 1.6-2.3 3.7-2.2 5.9 0.6 14.5 5.9 24.9 15.9 31 5.9 3.7 12.9 5.6 21 5.6 8.8 0 16.2-2.4 21.9-7.1 0.2-0.1 0.3-0.3 0.5-0.4h16.3c-0.5 0.6-1.1 1.2-1.6 1.8 -8.9 9.7-21.3 14.4-37.9 14.4 -13.7 0-25.5-4.1-36-12.6 -9.8-7.9-14.8-21.5-14.8-40.4 0-18.2 4.5-31.5 13.7-40.8 9.2-9.3 21-13.8 36-13.8 9 0 17.1 1.6 24.1 4.7 6.8 3.1 12.3 7.8 16.8 14.5 4.1 6 6.7 12.8 8 20.8 0.5 3.5 0.8 8.2 0.9 13.9H304.5z"/></svg>