<svg xmlns="http://www.w3.org/2000/svg" viewBox="0 0 512 512"><path d="M437 75C388.7 26.6 324.4 0 256 0 187.6 0 123.3 26.6 75 75S0 187.6 0 256c0 68.4 26.6 132.7 75 181 48.4 48.3 112.6 75 181 75 68.4 0 132.7-26.6 181-75 48.4-48.3 75-112.6 75-181C512 187.6 485.4 123.3 437 75zM425.7 425.7C380.4 471 320.1 496 256 496c-64.1 0-124.4-25-169.7-70.3C41 380.4 16 320.1 16 256c0-64.1 25-124.4 70.3-169.7C131.6 41 191.9 16 256 16c64.1 0 124.4 25 169.7 70.3C471 131.6 496 191.9 496 256 496 320.1 471 380.4 425.7 425.7z"/><path d="M357.3 167.6c3.1-13.7 3-35.3-4.4-45.1 -3.3-4.4-8-6.7-13.1-6.4 -15.6 0.7-27.7 8.5-40.8 16.4 -12-3-24.1-4.7-36.1-4.8 -0.1 0-0.2 0-0.2 0 -12 0.1-24.1 1.8-36.1 4.8 -13-7.9-25.1-15.7-40.8-16.4 -5.1-0.2-9.8 2.1-13.1 6.4 -7.4 9.8-7.5 31.3-4.4 45.1 -17 22.5-21.7 54.9-11.5 82.1 9.7 25.7 31.3 43.8 61.7 52 -2.5 4.4-4.6 10-5.3 17.8 -12.4 4.3-22.4 1.5-29.2-10 -7.9-13.4-21.4-24.2-36.9-22.8 -5.5 0.5-9.6 5.3-9.1 10.8 0.5 5.5 5.3 9.6 10.8 9.1 7.1-0.6 14.2 6.8 17.9 13.1 10.7 18 28 24.4 46.1 20.6v21.5h0v26.7c15.8 4.9 32.6 7.5 50 7.5 17.7 0 34.1-2.5 50-7.5V366c0 0 0 0 0 0v-39.8c0-11.5-2.5-18.9-5.6-24.5 30.3-8.2 52-26.3 61.7-52C379 222.5 374.3 190 357.3 167.6zM350 242.6c-6.1 16.1-21.6 36.6-61.3 42.5 -3.4 0.5-6.3 2.7-7.6 5.8 -1.4 3.1-1.1 6.7 0.8 9.6 5.8 8.9 10.9 11.1 10.9 25.7V366c0 2.3 0.3 4.6 0.8 6.8 -10.1 2.1-20.4 3.2-30.8 3.2s-20.7-1.1-30.8-3.2c0.5-2.2 0.8-4.5 0.8-6.8v-39.8c0-14.6 5.1-16.8 10.9-25.7 1.9-2.9 2.2-6.5 0.8-9.6 -1.4-3.1-4.3-5.3-7.6-5.8 -39.7-5.9-55.2-26.4-61.3-42.5 -8.1-21.5-3.8-48.2 10.4-65.1 2.2-2.5 4.1-7.1 2.5-11.7 -3-9.2-2.6-23.8-0.7-29.5 8.6 1.3 16.7 6.1 25.8 11.7 5.3 3.2 9.1 6.2 15.5 4.5 11.2-3 22.6-4.7 33.7-4.8 11.1 0.1 22.5 1.8 33.7 4.8 6.4 1.7 10.3-1.3 15.5-4.5 9.2-5.6 17.2-10.5 25.8-11.7 1.9 5.7 2.4 20.3-0.6 29.4 -1.6 4.7 0.4 9.2 2.5 11.8C353.9 194.3 358.1 221.1 350 242.6z"/></svg>