<svg xmlns="http://www.w3.org/2000/svg" viewBox="0 0 512 512"><path d="M437 75C388.7 26.6 324.4 0 256 0 187.6 0 123.3 26.6 75 75S0 187.6 0 256c0 68.4 26.6 132.7 75 181 48.4 48.3 112.6 75 181 75 68.4 0 132.7-26.6 181-75 48.4-48.3 75-112.6 75-181C512 187.6 485.4 123.3 437 75zM425.7 425.7C380.4 471 320.1 496 256 496c-64.1 0-124.4-25-169.7-70.3C41 380.4 16 320.1 16 256c0-64.1 25-124.4 70.3-169.7C131.6 41 191.9 16 256 16c64.1 0 124.4 25 169.7 70.3C471 131.6 496 191.9 496 256 496 320.1 471 380.4 425.7 425.7z"/><path d="M325.7 373h49.6c4.4 0 8-3.6 8-8v-85.5c0-24-6.2-42.9-18.4-56.2 -11.4-12.4-27.6-18.9-46.7-18.9 -16.6 0-28.3 5.1-36.7 11.6v-0.1c0-4.4-3.6-8-8-8h-49.6c-2.2 0-4.3 0.9-5.8 2.5 -1.5 1.6-2.3 3.7-2.2 5.9 0.6 13.6 0 147.4 0 148.7 0 2.1 0.8 4.2 2.3 5.7s3.5 2.4 5.7 2.4h49.6c4.4 0 8-3.6 8-8v-83.3c0-4.3 0.3-7.4 1.1-9.1 1.6-4 6.5-13.1 18-13.1 4.7 0 17.1 0 17.1 25.7V365C317.7 369.5 321.3 373 325.7 373zM300.6 243.5c-14.7 0-27 8.7-32.8 23.1 -1.5 3.8-2.2 8.4-2.2 15.1V357H232c0.1-25.9 0.4-105.5 0.1-133.1h33.4V237c0 3.5 2.3 6.7 5.7 7.7 3.4 1 7.1-0.3 9-3.3 6.7-10.4 16.5-21 38-21 31.2 0 49.1 21.5 49.1 59.1V357h-33.6v-71.8c0-12.1-2.4-21.9-7.2-28.9C320.7 248 311.8 243.5 300.6 243.5z"/><path d="M207.7 169.6c-0.4-19.8-15.1-33.6-35.7-33.6 -20.9 0-36 14.2-36 33.8s14.9 33.8 35.4 33.8h0.3c20.9 0 36-14.2 36-33.8C207.7 169.7 207.7 169.7 207.7 169.6zM171.7 187.5h-0.3c-11.6 0-19.4-7.1-19.4-17.8s8-17.8 20-17.8c11.9 0 19.5 6.8 19.7 17.9C191.7 180.4 183.7 187.5 171.7 187.5z"/><path d="M146.9 207.9c-4.4 0-8 3.6-8 8V365c0 4.4 3.6 8 8 8h49.6c4.4 0 8-3.6 8-8V215.9c0-4.4-3.6-8-8-8H146.9zM188.5 357h-33.6V223.9h33.6V357z"/></svg>
