<svg xmlns="http://www.w3.org/2000/svg" viewBox="0 0 512 512"><path d="M437 75C388.7 26.6 324.4 0 256 0S123.3 26.6 75 75C26.6 123.3 0 187.6 0 256s26.6 132.7 75 181c48.4 48.4 112.6 75 181 75s132.7-26.6 181-75c48.4-48.4 75-112.6 75-181S485.4 123.3 437 75zM256 495.8C123.8 495.8 16.2 388.2 16.2 256S123.8 16.2 256 16.2 495.8 123.8 495.8 256 388.2 495.8 256 495.8z"/><path d="M246.1 166.9c-4.2 0-7.6 3.4-7.6 7.6v173.1c0 4.2 3.4 7.6 7.6 7.6 4.2 0 7.6-3.4 7.6-7.6V174.6C253.8 170.3 250.3 166.9 246.1 166.9z"/><path d="M215.6 197.5c-4.2 0-7.6 3.4-7.6 7.6v142.5c0 4.2 3.4 7.6 7.6 7.6s7.6-3.4 7.6-7.6V205.1C223.2 200.9 219.8 197.5 215.6 197.5z"/><path d="M185.3 207.6c-4.3-0.1-7.9 3.3-7.9 7.6v132.3c0 4.2 3.4 7.6 7.6 7.6 4.2 0 7.6-3.4 7.6-7.6v-132C192.7 211.4 189.5 207.8 185.3 207.6z"/><path d="M154.5 217.8c-4.2 0-7.6 3.4-7.6 7.6v122.2c0 4.2 3.4 7.6 7.6 7.6 4.2 0 7.6-3.4 7.6-7.6V225.5C162.1 221.2 158.7 217.8 154.5 217.8z"/><path d="M124 238.2c-4.2 0-7.6 3.4-7.6 7.6v101.8c0 4.2 3.4 7.6 7.6 7.6 4.2 0 7.6-3.4 7.6-7.6V245.8C131.6 241.6 128.2 238.2 124 238.2z"/><path d="M93.4 258.5c-4.2 0-7.6 3.4-7.6 7.6v61.1c0 4.2 3.4 7.6 7.6 7.6 4.2 0 7.6-3.4 7.6-7.6v-61.1C101.1 262 97.6 258.5 93.4 258.5z"/><path d="M368.3 217.8c-15.3-36.8-51.5-61.1-91.7-61.1 -4.2 0-7.6 3.4-7.6 7.6v183.2c0 4.2 3.4 7.6 7.6 7.6h90.6c37.7 0 69.2-29.9 69.8-67.6C437.6 249.2 406.5 217.8 368.3 217.8zM367.4 340l-83.1 0V172.4c32.5 3 60.7 24.7 71.6 55.9 1.2 3.3 4.4 5.4 7.8 5.1 1.6-0.1 3.1-0.2 4.5-0.2 29.8 0 54 24.5 53.4 54.5C421.2 316.8 396.7 340 367.4 340z"/></svg>