<svg xmlns="http://www.w3.org/2000/svg" viewBox="0 0 512 512"><path d="M437 75C388.7 26.6 324.4 0 256 0 187.6 0 123.3 26.6 75 75S0 187.6 0 256c0 68.4 26.6 132.7 75 181 48.4 48.3 112.6 75 181 75 68.4 0 132.7-26.6 181-75 48.4-48.3 75-112.6 75-181C512 187.6 485.4 123.3 437 75zM425.7 425.7C380.4 471 320.1 496 256 496c-64.1 0-124.4-25-169.7-70.3C41 380.4 16 320.1 16 256c0-64.1 25-124.4 70.3-169.7C131.6 41 191.9 16 256 16c64.1 0 124.4 25 169.7 70.3C471 131.6 496 191.9 496 256 496 320.1 471 380.4 425.7 425.7z"/><path d="M264.7 286.5c-4-6.6-9.7-29.1-12.5-40.4 -1.6-6.5-2.9-14.2-4.3-22.4 -4-24.2-8.2-49.3-23.2-59.7 -6.1-4.2-13.2-5.6-21.3-4 -32.6 6.4-73 54.2-74.7 56.2 -2.3 2.7-2.4 6.6-0.2 9.5l9.5 12.5c1.2 1.6 3.1 2.7 5.1 2.9s4-0.3 5.6-1.6c5.7-4.4 13.1-8.2 16-8.3 3.5 6.4 12.7 36.5 19.5 58.7 7.8 25.4 15.1 49.3 19.2 57.8 5.1 10.6 16.4 24.5 31.6 28.8 3 0.9 6.1 1.3 9.2 1.3 6.7 0 13.4-2.1 19.7-6.1 10.6-6.9 35.1-26.1 59.2-54.5 19.9-23.4 45.2-60 52.6-101.3 0 0 0 0 0 0 4.8-26.9-4.5-41.2-13.1-48.4 -12.9-10.8-32.5-12.7-52.6-5.3 -19.9 7.4-43 26.3-48.2 57.1 -0.5 2.9 0.8 5.8 3.2 7.5 2.4 1.7 5.6 1.8 8.2 0.2 7.9-4.8 14.7-5.6 18.2-2.3 3.9 3.7 4.6 13.3-1.4 24.5C277 273.5 268.4 283.4 264.7 286.5zM301.8 213.7c-5.4-5.2-12.8-7.1-20.9-5.7 7.4-16.4 21.7-26.9 34.4-31.6 14.7-5.4 29.1-4.4 37.6 2.7 8 6.7 10.7 18.4 7.9 34.1C347.8 286 274.5 346.7 255.6 359c-5.5 3.6-10.9 4.5-16.5 3 -9.6-2.7-18-12.4-22-20.8 -3.6-7.5-11.1-32-18.3-55.7 -12.9-42.1-18.5-59.7-22.6-64.5 -3-3.6-6.8-4.9-10.9-4.9 -6.7 0-14.1 3.7-19.5 7.1l-1.3-1.8c4.1-4.5 11-11.9 19.2-19.5 16.9-15.6 31.7-24.9 42.8-27.1 5.2-1 8.1 0.4 9.7 1.6 9.7 6.8 13.7 30.6 16.9 49.7 1.4 8.5 2.7 16.5 4.5 23.6 3.8 15.4 7 27.3 10.1 35.6 2.1 5.6 6.5 17.2 16.3 17.2 4 0 14.7 0 39.5-46.3C312.1 240 311.5 222.8 301.8 213.7z"/></svg>